<svg width="32" height="32" fill="none" xmlns="http://www.w3.org/2000/svg"><g clip-path="url('#clip0_67_54')"><path fill-rule="evenodd" clip-rule="evenodd" d="M5.333 6.667a4 4 0 0 1 4-4h13.334a4 4 0 0 1 4 4v21.37c0 1.627-1.84 2.574-3.163 1.628L16 24.305l-7.504 5.36c-1.324.947-3.163 0-3.163-1.626V6.667Zm4-1.334A1.333 1.333 0 0 0 8 6.667v20.076l6.837-4.884a2 2 0 0 1 2.326 0L24 26.743V6.667a1.334 1.334 0 0 0-1.333-1.334H9.333Z" fill="#F8F8F8"/></g><defs><clipPath id="clip0_67_54"><path fill="#fff" d="M0 0h32v32H0z"/></clipPath></defs></svg>