<svg width="29" height="29" fill="none" xmlns="http://www.w3.org/2000/svg"><g clip-path="url('#clip0_28_156')"><path d="M14.5 2.417c6.674 0 12.083 5.41 12.083 12.083 0 6.674-5.41 12.083-12.083 12.083a12.036 12.036 0 0 1-5.876-1.522l-.369-.215-3.663 1.078a1.22 1.22 0 0 1-1.547-1.384l.032-.132 1.077-3.663A12.035 12.035 0 0 1 2.417 14.5c0-6.674 5.41-12.083 12.083-12.083Zm0 2.416a9.667 9.667 0 0 0-8.167 14.841c.24.377.342.841.261 1.302l-.047.196-.533 1.814 1.814-.533a1.827 1.827 0 0 1 1.498.214A9.666 9.666 0 1 0 14.5 4.833Zm-2.667 7a1.209 1.209 0 0 1 1.595-.1l.114.1 2.77 2.77 2.771-2.77a1.208 1.208 0 0 1 1.81 1.595l-.101.114-3.625 3.625a1.208 1.208 0 0 1-1.595.1l-.114-.1-2.77-2.77-2.771 2.77a1.209 1.209 0 0 1-1.809-1.595l.1-.114 3.625-3.625Z" fill="#fff"/></g><defs><clipPath id="clip0_28_156"><path fill="#fff" d="M0 0h29v29H0z"/></clipPath></defs></svg>