<svg width="5" height="8" fill="none" xmlns="http://www.w3.org/2000/svg"><path d="M.42 4.195c0 .236.215.462.598.63.383.166.903.26 1.445.26s1.061-.094 1.444-.26c.384-.168.599-.394.599-.63s-.215-.463-.599-.63c-.383-.166-.902-.26-1.444-.26-.542 0-1.062.094-1.445.26-.383.167-.598.394-.598.63Zm0-2.67c0 .236.215.462.598.629.383.167.903.26 1.445.26s1.061-.093 1.444-.26c.384-.167.599-.393.599-.63 0-.236-.215-.462-.599-.629-.383-.167-.902-.26-1.444-.26-.542 0-1.062.093-1.445.26s-.598.393-.598.63Zm0 5.34c0 .236.215.463.598.63.383.167.903.26 1.445.26s1.061-.093 1.444-.26c.384-.167.599-.394.599-.63s-.215-.462-.599-.63c-.383-.166-.902-.26-1.444-.26-.542 0-1.062.094-1.445.26-.383.168-.598.394-.598.63Z" fill="#F8F8F8"/></svg>