<svg width="31" height="31" viewBox="0 0 31 31" fill="none" xmlns="http://www.w3.org/2000/svg">
<path d="M26.9184 5.95462C26.2587 5.29459 25.4754 4.771 24.6132 4.41377C23.7511 4.05655 22.827 3.87268 21.8938 3.87268C20.9606 3.87268 20.0365 4.05655 19.1744 4.41377C18.3123 4.771 17.529 5.29459 16.8692 5.95462L15.5001 7.32379L14.1309 5.95462C12.7983 4.62202 10.9909 3.87337 9.10632 3.87337C7.22174 3.87337 5.41434 4.62202 4.08174 5.95462C2.74914 7.28722 2.00049 9.09462 2.00049 10.9792C2.00049 12.8638 2.74914 14.6712 4.08174 16.0038L15.5001 27.4221L26.9184 16.0038C27.5784 15.3441 28.102 14.5608 28.4593 13.6986C28.8165 12.8365 29.0003 11.9124 29.0003 10.9792C29.0003 10.046 28.8165 9.12192 28.4593 8.25979C28.102 7.39765 27.5784 6.61435 26.9184 5.95462Z" stroke="#B3B3B3" stroke-width="2.5" stroke-linecap="round" stroke-linejoin="round"/>
</svg>
