<svg width="29" height="29" viewBox="0 0 29 29" fill="none" xmlns="http://www.w3.org/2000/svg">
<g clip-path="url(#clip0_28_156)">
<path d="M14.5001 2.41669C21.1737 2.41669 26.5834 7.8264 26.5834 14.5C26.5834 21.1736 21.1737 26.5834 14.5001 26.5834C12.4435 26.5863 10.4204 26.0621 8.62397 25.0609L8.25542 24.8458L4.59176 25.9236C4.39239 25.9824 4.18131 25.9892 3.97855 25.9435C3.77578 25.8978 3.58804 25.8011 3.43313 25.6626C3.27822 25.524 3.16126 25.3481 3.09336 25.1517C3.02545 24.9553 3.00883 24.7447 3.04509 24.5401L3.07651 24.4084L4.15434 20.7447C3.01495 18.8612 2.41395 16.7013 2.41676 14.5C2.41676 7.8264 7.82647 2.41669 14.5001 2.41669ZM14.5001 4.83335C12.7693 4.83304 11.0702 5.29742 9.58016 6.17801C8.09013 7.05859 6.86385 8.32307 6.02939 9.83941C5.19492 11.3557 4.78287 13.0683 4.83627 14.7983C4.88967 16.5282 5.40656 18.2121 6.33297 19.6741C6.57222 20.0511 6.67492 20.5151 6.59397 20.9755L6.54684 21.1724L6.01397 22.9861L7.82767 22.4533C8.35088 22.2986 8.89463 22.3929 9.32601 22.6671C10.5927 23.4692 12.0287 23.9657 13.5203 24.1172C15.0119 24.2687 16.5184 24.0712 17.9205 23.5403C19.3227 23.0093 20.5821 22.1595 21.5993 21.058C22.6164 19.9565 23.3634 18.6335 23.7812 17.1935C24.1989 15.7536 24.276 14.2362 24.0063 12.7614C23.7367 11.2865 23.1276 9.89458 22.2274 8.69564C21.3271 7.4967 20.1603 6.52361 18.8192 5.85329C17.4781 5.18296 15.9994 4.83378 14.5001 4.83335ZM11.8333 11.8332C12.0414 11.6252 12.3182 11.5002 12.6119 11.4817C12.9055 11.4633 13.1958 11.5526 13.4283 11.7329L13.5419 11.8332L16.3126 14.6039L19.0833 11.8332C19.3007 11.6165 19.5925 11.4907 19.8994 11.4813C20.2062 11.472 20.5052 11.5797 20.7354 11.7828C20.9657 11.9858 21.11 12.2689 21.1392 12.5745C21.1683 12.8801 21.08 13.1854 20.8922 13.4282L20.7919 13.5418L17.1669 17.1668C16.9588 17.3749 16.682 17.4998 16.3883 17.5183C16.0947 17.5368 15.8044 17.4474 15.5719 17.2671L15.4583 17.1668L12.6876 14.3961L9.91688 17.1668C9.69943 17.3835 9.40765 17.5093 9.10079 17.5187C8.79394 17.5281 8.49502 17.4203 8.26475 17.2173C8.03449 17.0142 7.89014 16.7311 7.86103 16.4255C7.83191 16.1199 7.92022 15.8147 8.10801 15.5718L8.2083 15.4582L11.8333 11.8332Z" fill="white"/>
</g>
<defs>
<clipPath id="clip0_28_156">
<rect width="29" height="29" fill="white"/>
</clipPath>
</defs>
</svg>
