<svg width="32" height="32" viewBox="0 0 32 32" fill="none" xmlns="http://www.w3.org/2000/svg">
<g clip-path="url(#clip0_67_54)">
<path fill-rule="evenodd" clip-rule="evenodd" d="M5.33325 6.66663C5.33325 5.60576 5.75468 4.58834 6.50482 3.8382C7.25497 3.08805 8.27239 2.66663 9.33325 2.66663H22.6666C23.7275 2.66663 24.7449 3.08805 25.495 3.8382C26.2452 4.58834 26.6666 5.60576 26.6666 6.66663V28.0373C26.6666 29.664 24.8266 30.6106 23.5039 29.6653L15.9999 24.3053L8.49592 29.6653C7.17192 30.612 5.33325 29.6653 5.33325 28.0386V6.66663ZM9.33325 5.33329C8.97963 5.33329 8.64049 5.47377 8.39044 5.72382C8.14039 5.97387 7.99992 6.313 7.99992 6.66663V26.7426L14.8373 21.8586C15.1765 21.6163 15.583 21.486 15.9999 21.486C16.4168 21.486 16.8233 21.6163 17.1626 21.8586L23.9999 26.7426V6.66663C23.9999 6.313 23.8594 5.97387 23.6094 5.72382C23.3593 5.47377 23.0202 5.33329 22.6666 5.33329H9.33325Z" fill="#F8F8F8"/>
</g>
<defs>
<clipPath id="clip0_67_54">
<rect width="32" height="32" fill="white"/>
</clipPath>
</defs>
</svg>
