<svg width="5" height="8" viewBox="0 0 5 8" fill="none" xmlns="http://www.w3.org/2000/svg">
<path d="M0.419922 4.19487C0.419922 4.43094 0.635162 4.65735 1.01829 4.82428C1.40142 4.99121 1.92105 5.08499 2.46288 5.08499C3.00471 5.08499 3.52434 4.99121 3.90747 4.82428C4.2906 4.65735 4.50584 4.43094 4.50584 4.19487C4.50584 3.9588 4.2906 3.73239 3.90747 3.56546C3.52434 3.39853 3.00471 3.30475 2.46288 3.30475C1.92105 3.30475 1.40142 3.39853 1.01829 3.56546C0.635162 3.73239 0.419922 3.9588 0.419922 4.19487ZM0.419922 1.52452C0.419922 1.76059 0.635162 1.987 1.01829 2.15393C1.40142 2.32085 1.92105 2.41463 2.46288 2.41463C3.00471 2.41463 3.52434 2.32085 3.90747 2.15393C4.2906 1.987 4.50584 1.76059 4.50584 1.52452C4.50584 1.28844 4.2906 1.06204 3.90747 0.895109C3.52434 0.728179 3.00471 0.634399 2.46288 0.634399C1.92105 0.634399 1.40142 0.728179 1.01829 0.895109C0.635162 1.06204 0.419922 1.28844 0.419922 1.52452ZM0.419922 6.86522C0.419922 7.1013 0.635162 7.3277 1.01829 7.49463C1.40142 7.66156 1.92105 7.75534 2.46288 7.75534C3.00471 7.75534 3.52434 7.66156 3.90747 7.49463C4.2906 7.3277 4.50584 7.1013 4.50584 6.86522C4.50584 6.62915 4.2906 6.40274 3.90747 6.23581C3.52434 6.06888 3.00471 5.9751 2.46288 5.9751C1.92105 5.9751 1.40142 6.06888 1.01829 6.23581C0.635162 6.40274 0.419922 6.62915 0.419922 6.86522Z" fill="#F8F8F8"/>
</svg>
